<?xml version="1.0" encoding="utf-8"?>
<!-- Generator: Adobe Illustrator 16.0.4, SVG Export Plug-In . SVG Version: 6.00 Build 0)  -->
<!DOCTYPE svg PUBLIC "-//W3C//DTD SVG 1.1//EN" "http://www.w3.org/Graphics/SVG/1.1/DTD/svg11.dtd">
<svg version="1.1" id="Layer_1" xmlns="http://www.w3.org/2000/svg" xmlns:xlink="http://www.w3.org/1999/xlink" x="0px" y="0px"
	 width="256px" height="256px" viewBox="0 0 256 256" enable-background="new 0 0 256 256" xml:space="preserve">
<rect fill="#03BAEA" width="256" height="256"/>
<defs>
	<filter id="Adobe_OpacityMaskFilter" filterUnits="userSpaceOnUse" x="65.368" y="31.846" width="190.632" height="224.154">
		<feColorMatrix  type="matrix" values="1 0 0 0 0  0 1 0 0 0  0 0 1 0 0  0 0 0 1 0"/>
	</filter>
</defs>
<mask maskUnits="userSpaceOnUse" x="65.368" y="31.846" width="190.632" height="224.154" id="SVGID_1_">
	<g filter="url(#Adobe_OpacityMaskFilter)">
		<linearGradient id="SVGID_2_" gradientUnits="userSpaceOnUse" x1="60.019" y1="103.7466" x2="272.9319" y2="226.6719">
			<stop  offset="0" style="stop-color:#FFFFFF"/>
			<stop  offset="0.0852" style="stop-color:#F5F5F5"/>
			<stop  offset="0.2308" style="stop-color:#DADADA"/>
			<stop  offset="0.4189" style="stop-color:#AEAEAE"/>
			<stop  offset="0.6424" style="stop-color:#707070"/>
			<stop  offset="0.8928" style="stop-color:#232323"/>
			<stop  offset="1" style="stop-color:#000000"/>
		</linearGradient>
		<path fill="url(#SVGID_2_)" d="M167.528,55.332l-3.098,0.936l-3.747-4.289L142.32,31.846h-17.005l-12.929,13.989l6.571,6.911
			v4.717L132,67.89l-19.614,1.159L98.487,53.472l-11.856,4.182V67.89l13.515,12.589l7.919,0.507
			c-15.549,10.837-42.929,29.962-42.696,30.099c0.326,0.191-0.001,45.963-0.001,45.963l0.001,39.216L116.891,256H256v-76.83v-18.085
			L167.528,55.332z M146.748,83.463L146.748,83.463l13.755-1.563l9.391,9.565L146.748,83.463z"/>
	</g>
</mask>
<path mask="url(#SVGID_1_)" fill="#00A5D1" d="M167.528,55.332l-3.098,0.936l-3.747-4.289L142.32,31.846h-17.005l-12.929,13.989
	l6.571,6.911v4.717L132,67.89l-19.614,1.159L98.487,53.472l-11.856,4.182V67.89l13.515,12.589l7.919,0.507
	c-15.549,10.837-42.929,29.962-42.696,30.099c0.326,0.191-0.001,45.963-0.001,45.963l0.001,39.216L116.891,256H256v-76.83v-18.085
	L167.528,55.332z M146.748,83.463L146.748,83.463l13.755-1.563l9.391,9.565L146.748,83.463z"/>
<defs>
	<filter id="Adobe_OpacityMaskFilter_1_" filterUnits="userSpaceOnUse" x="112.386" y="113.234" width="88.989" height="98.088">
		<feColorMatrix  type="matrix" values="1 0 0 0 0  0 1 0 0 0  0 0 1 0 0  0 0 0 1 0"/>
	</filter>
</defs>
<mask maskUnits="userSpaceOnUse" x="112.386" y="113.234" width="88.989" height="98.088" id="SVGID_3_">
	<g filter="url(#Adobe_OpacityMaskFilter_1_)">
		<linearGradient id="SVGID_4_" gradientUnits="userSpaceOnUse" x1="120.5977" y1="139.8633" x2="192.0008" y2="181.0879">
			<stop  offset="0" style="stop-color:#FFFFFF"/>
			<stop  offset="0.0852" style="stop-color:#F5F5F5"/>
			<stop  offset="0.2308" style="stop-color:#DADADA"/>
			<stop  offset="0.4189" style="stop-color:#AEAEAE"/>
			<stop  offset="0.6424" style="stop-color:#707070"/>
			<stop  offset="0.8928" style="stop-color:#232323"/>
			<stop  offset="1" style="stop-color:#000000"/>
		</linearGradient>
		<polygon fill="url(#SVGID_4_)" points="158.339,113.234 201.375,164.853 176,200.5 160.503,211.322 112.386,154.088 		"/>
	</g>
</mask>
<polygon opacity="0.5" mask="url(#SVGID_3_)" fill="#0096BE" points="158.339,113.234 201.375,164.853 176,200.5 160.503,211.322 
	112.386,154.088 "/>
<g>
	<path fill="#35495E" d="M138.766,31.089h-21.533c-10.502,0-10.502,16.284,0,16.284h1.725v10.088
		c2.967-0.319,5.986-0.493,9.045-0.493c3.054,0,6.07,0.173,9.047,0.493V47.374h1.717C149.268,47.374,149.268,31.089,138.766,31.089z
		 M162.97,52.303c-5.079-1.398-9.398,1.706-11.131,6.316c-0.204,0.545-0.402,1.089-0.606,1.632
		c5.844,1.687,11.441,3.965,16.692,6.811c0.453-1.21,0.912-2.421,1.365-3.629C171.02,58.811,167.401,53.52,162.97,52.303z
		 M91.275,52.303c-4.424,1.217-8.05,6.508-6.318,11.13c0.558,1.484,1.116,2.972,1.674,4.457c5.202-2.954,10.737-5.387,16.56-7.185
		c-0.262-0.695-0.523-1.389-0.785-2.085C100.674,54.009,96.356,50.905,91.275,52.303z"/>
	<path fill="#35495E" d="M46.872,143.783c0-21.852,8.007-40.617,24.029-56.297c15.95-15.681,35.116-23.525,57.503-23.525
		c22.113,0,41.082,7.907,56.898,23.724c15.887,15.818,23.825,34.82,23.825,57.003c0,22.316-7.975,41.252-23.925,56.799
		c-16.02,15.619-35.355,23.424-58.007,23.424c-20.042,0-38.036-6.938-53.986-20.809C55.648,188.754,46.872,168.645,46.872,143.783z
		 M70.497,144.033c0,17.143,5.76,31.242,17.293,42.287c11.456,11.049,24.693,16.572,39.711,16.572
		c16.283,0,30.02-5.625,41.214-16.873c11.195-11.383,16.784-25.248,16.784-41.586c0-16.538-5.525-30.396-16.586-41.584
		c-10.989-11.25-24.594-16.873-40.813-16.873c-16.156,0-29.794,5.623-40.917,16.873C76.058,113.965,70.497,127.694,70.497,144.033z"
		/>
	<path fill="#FFFFFF" d="M143.057,139.803c4.931-4.928,9.857-9.85,14.783-14.779c8.246-8.252-4.543-21.042-12.792-12.792
		c-4.932,4.926-9.857,9.852-14.785,14.778c-5.638-1.333-11.808,0.144-16.21,4.547c-6.757,6.756-6.757,17.707,0,24.463
		c6.75,6.752,17.703,6.756,24.46,0C142.913,151.617,144.391,145.443,143.057,139.803z"/>
</g>
</svg>
